# xmcd
#
# Track frame offsets: 
#        150
#        21611
#        36308
#        59230
#        77059
#        88130
#        106909
#        125497
#        144902
#        160585
#        175285
#        203231
#
# Disc length: 2985 seconds
#
# Revision: 0
# Processed by: cddbd v1.5.2PL0 Copyright (c) Steve Scherf et al.
# Submitted via: ExactAudioCopy v0.99pb4
#
DISCID=a90ba70c
DTITLE=Howard Carpendale - 20 Uhr 10 live
DYEAR=2008
DGENRE=
TTITLE0=20 Uhr 10
TTITLE1=Goodbye America
TTITLE2=Medley a) Hi  b) Simply the best  c) Hi 
TTITLE3=Ruf mich an
TTITLE4=It´s a heartache
TTITLE5=Wenn ich könnte wie ich wollte
TTITLE6=Du fehlst
TTITLE7=Eine Nacht in New York City
TTITLE8=Samstag Nacht
TTITLE9=Es geht um mehr
TTITLE10=Nachts, wenn alles schläft
TTITLE11=Nothing´s gonna stop us now
EXTD=
EXTT0=
EXTT1=
EXTT2=
EXTT3=
EXTT4=
EXTT5=
EXTT6=
EXTT7=
EXTT8=
EXTT9=
EXTT10=
EXTT11=
PLAYORDER=
